# File created by Blade
# Date/Time:  Wed Jan 21 15:15:22 2015
# Frame Rate: 120.000 fps
#------------------------------------------------------
:FULLY-SPECIFIED
:DEGREES
535
root 17.109240 36.011261 -18.042853 85.973060 -81.011563 -65.818155
Spine -25.160204 -11.329840 8.801134
Head 11.141743 6.027286 6.950340
LeftShoulder -14.313466 -21.309365 1.094940
LeftArm -15.978942 8.612857 -65.232638
LeftForeArm 1.656503 -0.000000 5.943404
LeftHand -0.943049 -0.000000 -3.777520
LeftHandThumb1 -26.253704 0.000000 33.147579
RightShoulder -19.995169 -20.861450 11.160361
RightArm -9.629910 4.679957 67.182347
RightForeArm -20.503310 -0.000000 9.154371
RightHand -5.413655 -0.000000 16.644272
RightHandThumb1 -24.326973 -0.000000 -32.862282
LeftUpLeg -13.088662 3.442625 -2.778610
LeftLeg -6.505096 -0.000000 0.000000
LeftFoot -19.139709 19.184685 -11.164122
LeftToeBase 32.677259 -0.000000 -0.000000
RightUpLeg -1.987868 -14.544009 -3.903842
RightLeg 137.729067 -0.000000 -0.000000
RightFoot 9.033120 -37.242246 -5.577700
RightToeBase 22.664147 -0.000000 -0.000000
536
root 17.112395 36.006666 -18.052596 85.901889 -81.149573 -65.739529
Spine -25.162182 -11.457108 8.517653
Head 11.260483 6.018374 7.169752
LeftShoulder -14.304768 -21.245712 1.137607
LeftArm -15.809074 8.828853 -65.286221
LeftForeArm 1.591259 0.000000 5.840421
LeftHand -1.006149 -0.000000 -3.918352
LeftHandThumb1 -26.253704 0.000000 33.147579
RightShoulder -20.047923 -20.868015 11.310962
RightArm -9.615681 4.625967 67.292699
RightForeArm -20.660288 -0.000000 9.205648
RightHand -5.478265 -0.000000 16.789419
RightHandThumb1 -24.326973 -0.000000 -32.862282
LeftUpLeg -13.119961 3.425675 -2.878838
LeftLeg -6.439192 -0.000000 0.000000
LeftFoot -19.243156 19.072225 -11.313546
LeftToeBase 32.961747 -0.000000 -0.000000
RightUpLeg -2.002674 -14.568923 -3.652004
RightLeg 137.757085 -0.000000 -0.000000
RightFoot 8.877073 -37.220629 -5.484412
RightToeBase 22.847406 -0.000000 -0.000000
537
root 17.114005 36.001612 -18.064459 85.777597 -81.303910 -65.625905
Spine -25.135089 -11.606351 8.195339
Head 11.369150 6.050059 7.428766
LeftShoulder -14.317277 -21.203449 1.217001
LeftArm -15.637572 8.969714 -65.316258
LeftForeArm 1.644079 -0.000000 5.727193
LeftHand -1.057837 -0.000000 -3.963861
LeftHandThumb1 -26.253704 0.000000 33.147579
RightShoulder -20.133890 -20.877515 11.475427
RightArm -9.534786 4.467497 67.446425
RightForeArm -20.865940 -0.000000 9.186326
RightHand -5.639878 -0.000000 16.679917
RightHandThumb1 -24.326973 -0.000000 -32.862282
LeftUpLeg -13.135006 3.432794 -2.999055
LeftLeg -6.369476 -0.000000 0.000000
LeftFoot -19.341891 18.947775 -11.455499
LeftToeBase 33.292786 -0.000000 -0.000000
RightUpLeg -2.000856 -14.727916 -3.432843
RightLeg 137.850484 -0.000000 -0.000000
RightFoot 8.618143 -37.213428 -5.368702
RightToeBase 22.628683 -0.000000 -0.000000
538
root 17.115984 35.995596 -18.074238 85.323675 -81.434984 -65.210580
Spine -25.073619 -11.792331 7.901429
Head 11.461536 6.072782 7.678358
LeftShoulder -14.287219 -21.197257 1.262687
LeftArm -15.487397 9.071832 -65.332654
LeftForeArm 1.677642 0.000000 5.563952
LeftHand -1.060628 0.000000 -4.084017
LeftHandThumb1 -26.253704 0.000000 33.147579
RightShoulder -20.210885 -20.912263 11.627983
RightArm -9.381036 4.513307 67.580469
RightForeArm -21.174810 -0.000000 9.073024
RightHand -5.688839 -0.000000 16.663419
RightHandThumb1 -24.326973 -0.000000 -32.862282
LeftUpLeg -13.125805 3.401658 -3.108488
LeftLeg -6.296820 -0.000000 0.000000
LeftFoot -19.457300 18.822687 -11.661209
LeftToeBase 33.609261 -0.000000 -0.000000
RightUpLeg -1.957774 -14.916823 -3.225928
RightLeg 137.831910 -0.000000 -0.000000
RightFoot 8.601649 -37.513358 -5.369219
RightToeBase 22.613927 -0.000000 -0.000000
539
root 17.120680 35.990248 -18.085881 84.753097 -81.559093 -64.672257
Spine -25.006136 -11.976818 7.598458
Head 11.547811 6.084335 7.911583
LeftShoulder -14.264395 -21.190440 1.292603
LeftArm -15.274850 9.217028 -65.323810
LeftForeArm 1.707705 -0.000000 5.368493
LeftHand -1.029443 -0.000000 -4.205482
LeftHandThumb1 -26.253704 0.000000 33.147579
RightShoulder -20.252062 -20.902952 11.801849
RightArm -9.360843 4.272081 67.736854
RightForeArm -21.243900 -0.000000 9.123485
RightHand -5.688049 -0.000000 16.663890
RightHandThumb1 -24.326973 -0.000000 -32.862282
LeftUpLeg -13.123341 3.407794 -3.215911
LeftLeg -6.236445 -0.000000 0.000000
LeftFoot -19.631995 18.582990 -11.956272
LeftToeBase 34.205342 -0.000000 -0.000000
RightUpLeg -1.934322 -15.108914 -3.011078
RightLeg 137.899176 -0.000000 -0.000000
RightFoot 8.434320 -37.481622 -5.174638
RightToeBase 22.631530 -0.000000 -0.000000
540
root 17.126902 35.985447 -18.097068 84.479345 -81.668284 -64.417297
Spine -24.948598 -12.113675 7.327576
Head 11.624771 6.104018 8.137848
LeftShoulder -14.231591 -21.192747 1.317552
LeftArm -15.091076 9.357837 -65.320974
LeftForeArm 1.691925 -0.000000 5.223108
LeftHand -1.050363 -0.000000 -4.313235
LeftHandThumb1 -26.253704 0.000000 33.147579
RightShoulder -20.267089 -20.898355 11.958535
RightArm -9.348477 4.127478 67.900039
RightForeArm -21.360268 -0.000000 9.152844
RightHand -5.827954 -0.000000 16.593164
RightHandThumb1 -24.326973 -0.000000 -32.862282
LeftUpLeg -13.144340 3.443818 -3.306876
LeftLeg -6.157820 -0.000000 0.000000
LeftFoot -19.788738 18.419936 -12.114455
LeftToeBase 34.733829 -0.000000 -0.000000
RightUpLeg -1.948265 -15.208509 -2.771083
RightLeg 138.004619 -0.000000 -0.000000
RightFoot 8.276728 -37.306297 -5.185318
RightToeBase 22.831858 -0.000000 -0.000000
541
root 17.130209 35.978747 -18.109497 84.108968 -81.807166 -64.127407
Spine -24.811513 -12.242306 6.971400
Head 11.681410 6.042883 8.380561
LeftShoulder -14.170263 -21.190381 1.360766
LeftArm -14.881645 9.466058 -65.300662
LeftForeArm 1.757065 -0.000000 5.074092
LeftHand -1.050100 -0.000000 -4.318231
LeftHandThumb1 -26.253704 0.000000 33.147579
RightShoulder -20.308428 -20.906008 12.149393
RightArm -9.271201 4.040240 68.082319
RightForeArm -21.435526 -0.000000 9.107645
RightHand -5.864835 -0.000000 16.499826
RightHandThumb1 -24.326973 -0.000000 -32.862282
LeftUpLeg -13.066210 3.527978 -3.432204
LeftLeg -6.140411 -0.000000 0.000000
LeftFoot -19.902535 18.208049 -12.284855
LeftToeBase 35.271009 -0.000000 -0.000000
RightUpLeg -1.891277 -15.408793 -2.604128
RightLeg 138.051172 -0.000000 -0.000000
RightFoot 8.181657 -37.376843 -4.915366
RightToeBase 22.189556 -0.000000 -0.000000
